<svg xmlns="http://www.w3.org/2000/svg" viewBox="0 0 512 512"><!--!Font Awesome Free 6.7.2 by @fontawesome - https://fontawesome.com License - https://fontawesome.com/license/free Copyright 2025 Fonticons, Inc.--><path d="M25.7 228.2l.4-.5c0 .2 0 .3-.1 .5zm460.6 15.5c0-44-7.8-84.5-28.8-122.4C416.5 47.9 343.9 8 258.9 8 119 7.7 40.6 113.2 26.1 227.7c42.4-61.3 117.1-121.4 220.4-125 0 0 109.7 0 99.4 105H170c6.4-37.4 18.6-59 34.3-78.9-75.1 34.9-121.9 96.1-120.8 188.3 .8 71.5 50.1 144.8 120.8 172 83.4 31.8 192.8 7.2 240.1-21.3V363.3C363.6 419.8 173.6 424.2 172.2 295.7H486.3V243.7z"/></svg>